# xmcd
#
# Track frame offsets:
#	150
#	10218
#	20040
#	29963
#	41069
#	51083
#	60645
#	72377
#	83151
#	95903
#	104254
#	115124
#	124744
#	134979
#	145711
#	155687
#
# Disc length: 2218 seconds
#
# Revision: 1
# Processed by: cddbd v1.5.2PL0 Copyright (c) Steve Scherf et al.
# Submitted via: audiograbber 1.83.01
#
DISCID=f108a810
DTITLE=Johnny and The Hurricanes - Rockin' Goose
DYEAR=1900
DGENRE=
TTITLE0=Red River Rock
TTITLE1=Buckeye
TTITLE2=Beatnik Fly
TTITLE3=Crossfire
TTITLE4=Lazy
TTITLE5=Ja Da
TTITLE6=Minnesota Fats
TTITLE7=Reveille Rock
TTITLE8=Walkin'
TTITLE9=Rockin' Goose
TTITLE10=High Voltage
TTITLE11=Down Yonder
TTITLE12=Sheba
TTITLE13=Whatever Happened To Baby Jane
TTITLE14=Bye Bye Blackbird
TTITLE15=Farewell, Farewell
EXTD=
EXTT0=
EXTT1=
EXTT2=
EXTT3=
EXTT4=
EXTT5=
EXTT6=
EXTT7=
EXTT8=
EXTT9=
EXTT10=
EXTT11=
EXTT12=
EXTT13=
EXTT14=
EXTT15=
PLAYORDER=
